<svg xmlns="http://www.w3.org/2000/svg" xmlns:xlink="http://www.w3.org/1999/xlink" width="500" zoomAndPan="magnify" viewBox="0 0 375 374.999991" height="500" preserveAspectRatio="xMidYMid meet" version="1.0"><defs><g/><clipPath id="id1"><path d="M 3.363281 4 L 370.367188 4 L 370.367188 371 L 3.363281 371 Z M 3.363281 4 " clip-rule="nonzero"/></clipPath></defs><g clip-path="url(#id1)"><path fill="#062346" d="M 186.867188 4 C 85.519531 4 3.363281 86.15625 3.363281 187.5 C 3.363281 288.84375 85.519531 371 186.867188 371 C 288.210938 371 370.367188 288.84375 370.367188 187.5 C 370.367188 86.15625 288.210938 4 186.867188 4 " fill-opacity="1" fill-rule="nonzero"/></g><g fill="#7ddcfa" fill-opacity="1"><g transform="translate(39.742794, 257.193834)"><g><path d="M 86.214844 -117.976562 L 4.914062 -65.226562 L 4.914062 -58.988281 L 86.214844 -6.996094 L 86.214844 -38.191406 L 43.105469 -62.390625 L 86.214844 -86.96875 Z M 86.214844 -117.976562 "/></g></g></g><g fill="#7ddcfa" fill-opacity="1"><g transform="translate(140.136288, 257.193834)"><g><path d="M 3.78125 15.503906 L 32.898438 15.503906 L 90.371094 -143.878906 L 61.445312 -143.878906 Z M 3.78125 15.503906 "/></g></g></g><g fill="#7ddcfa" fill-opacity="1"><g transform="translate(234.857833, 257.193834)"><g><path d="M 13.992188 -117.976562 L 13.992188 -86.96875 L 57.097656 -62.390625 L 13.992188 -38.191406 L 13.992188 -6.996094 L 95.289062 -58.988281 L 95.289062 -65.226562 Z M 13.992188 -117.976562 "/></g></g></g></svg>